<svg id="visual" viewBox="0 0 500 500" width="500" height="500" xmlns="http://www.w3.org/2000/svg" xmlns:xlink="http://www.w3.org/1999/xlink" version="1.1"><rect x="0" y="0" width="500" height="500" fill="#204116"></rect><g transform="translate(248.4556318517059 265.65231131817677)"><path d="M127.6 -182.1C159.9 -152.1 177 -107.6 186.1 -64.1C195.3 -20.6 196.6 21.8 188.7 66.1C180.9 110.3 163.9 156.3 130.9 177C98 197.8 49 193.4 6.1 185C-36.7 176.6 -73.5 164.1 -106.4 143.3C-139.4 122.6 -168.6 93.4 -182 57.8C-195.3 22.2 -192.7 -19.8 -179.8 -58C-166.8 -96.2 -143.3 -130.6 -111.6 -160.8C-79.9 -191 -40 -217 3.8 -222.3C47.6 -227.5 95.2 -212.1 127.6 -182.1" fill="#FFFFFF"></path></g></svg>