<?xml version="1.0" encoding="utf-8" ?><svg xmlns="http://www.w3.org/2000/svg" xmlns:xlink="http://www.w3.org/1999/xlink" width="1024" height="1024" viewBox="0 0 1024 1024"><path fill="#F1DBCC" d="M353.897 97.8862C385.711 61.4598 421.714 41.4807 470.186 37.2718C559.466 29.5193 640.102 95.6697 644.77 186.163C649.385 275.635 582.629 350.994 493.107 355.914C447.19 358.437 404.484 344.092 370.214 313.205C341.062 287.053 320 247.266 317.998 207.87C317.702 201.472 317.664 195.065 317.885 188.664C336.198 189.336 358.69 188.575 377.347 188.499L453.656 188.932C453.077 183.428 452.385 179.173 449.224 174.348C446.294 169.785 441.611 166.633 436.281 165.636C428.866 164.217 424.071 166.29 418.131 170.125C411.646 154.316 398.021 150.307 382.552 156.105C383.045 129.452 374.83 114.092 353.897 97.8862Z"/><path fill="#F8F8F8" d="M254.517 155.388C254.325 142.918 256.371 130.999 262.629 120.079C271.359 104.985 285.729 93.9787 302.575 89.4819C320.916 84.7004 337.792 88.5084 353.897 97.8862C374.83 114.092 383.045 129.452 382.552 156.105C398.021 150.307 411.646 154.316 418.131 170.125C424.071 166.29 428.866 164.217 436.281 165.636C441.611 166.633 446.294 169.785 449.224 174.348C452.385 179.173 453.077 183.428 453.656 188.932L377.347 188.499C358.69 188.575 336.198 189.336 317.885 188.664C294.819 188.04 269.815 188.56 246.669 188.692L187.029 188.484C170.834 188.48 152.316 188.918 136.242 188.137C143.738 161.74 173.765 155.112 193.915 171.917C199.864 162.243 205.896 153.179 217.319 149.721C231.873 145.316 241.818 149.007 254.517 155.388Z"/><path fill="#F8F8F8" d="M925.391 393.006C927.23 389.353 922.683 375.406 921.437 371.261C913.648 345.347 903.758 319.646 890.874 295.812C887.541 289.646 884.553 283.036 880.575 277.526L672.775 277.382C674.169 271.688 675.905 267.197 679.693 262.602C688.181 252.307 702.237 249.028 714.906 252.043C722.99 253.968 727.844 257.78 734.018 263.021C739.663 242.413 758.002 230.509 779.239 235.936C784.481 237.275 789.965 240.613 794.348 243.724C793.621 223.319 798.212 208.509 812.667 193.038L813.229 192.446C782.397 165.48 747.788 143.166 710.5 126.212C705.333 123.864 693.403 119.822 688.904 116.321C688.721 115.531 688.564 114.85 688.432 114.277C689.036 112.452 688.488 113.122 690.065 112.145C694.957 111.584 704.561 116.765 709.265 118.778C739.888 131.881 768.999 149.48 795.38 169.792C803.199 175.813 810.713 182.671 818.727 188.733C829.725 180.916 838.161 177.368 851.487 175.139C841.884 166.065 832.174 157.166 821.839 148.922C814.135 142.777 781.333 121.587 777.86 115.714L777.831 114.536C782.328 111.721 793.239 120.604 797.26 123.277C819.88 138.318 840.38 155.315 859.189 174.913C877.915 175.557 895.586 183.743 908.187 197.611C920.46 210.865 924.649 225.963 925.158 243.595C939.853 236.615 952.569 241.093 961.086 254.521C968.262 251.598 973.966 250.014 981.696 253.194C987.681 255.649 992.424 260.414 994.851 266.412C996.288 269.965 996.64 273.225 997.005 276.976C974.658 277.669 951.914 276.779 929.998 277.468C938.123 290.864 943.338 304.617 948.98 319.202C978.11 394.507 984.253 472.318 973.497 551.836C971.203 569.556 968.005 587.146 963.917 604.54C962.414 610.678 956.417 635.873 952.443 638.802C950.722 638.708 951.454 639.016 950.182 637.828C948.576 633.617 950.965 627.541 952.343 623.348C957.336 608.161 960.759 592.944 963.601 577.173C970.289 541.157 973.236 504.547 972.396 467.926C970.524 396.277 953.939 341.692 924.365 277.362C911.984 277.304 899.603 277.342 887.223 277.477C890.869 284.244 895.116 290.724 898.654 297.478C913.454 325.056 924.281 354.587 930.816 385.195C932.116 391.272 934.735 397.621 934.131 403.518L933.837 403.103L933.338 402.419C930.718 398.789 928.397 396.307 925.391 393.006Z"/><path fill="#F8F8F8" d="M57.3663 533.065C56.719 527.032 56.6764 516.333 56.5462 510.086C55.7883 482.72 57.2299 455.337 60.8571 428.201C68.2551 372.238 83.5711 319.337 109.817 269.302C112.113 264.924 121.855 244.622 126.641 245.443C130.369 248.531 125.389 254.236 123.513 257.471C82.1653 328.773 63.0225 412.057 62.3939 494.141C62.3247 503.187 61.5917 522.109 63.5036 530.338L57.3663 533.065Z"/><path fill="#422038" d="M774.637 483.836C775.472 483.772 778.976 483.693 779.273 482.793C794.341 437.167 816.033 377.491 872.401 373.5C893.348 372.016 910.072 379.28 925.391 393.006C928.397 396.307 930.718 398.789 933.338 402.419L933.837 403.103L934.131 403.518C944.822 421.153 947.198 433.954 943.863 454.397C942.79 459.944 941.588 464.227 939.709 469.574C928.623 496.638 919.424 509.571 897.891 529.258C914.836 531.771 925.171 540.116 933.729 554.615L937.053 562.721C949.203 613.927 906.83 636.495 867.974 654.996C855.498 660.793 843.149 666.858 830.934 673.186C819.278 679.172 807.784 685.466 796.464 692.063C787.34 697.292 776.776 703.67 767.302 708.011C768.3 683.186 772.143 658.558 778.754 634.609C796.561 625.344 811.586 618.288 831.241 613.296C835.932 612.105 849.736 610.683 851.6 608.056C851.659 606.384 851.895 607.135 850.723 605.776C847.133 603.902 824.868 609.729 820.353 611.288C809.621 614.995 788.055 623.232 779.275 629.4C784.987 608.162 792.929 581.973 802.465 562.112C807.442 562.312 834.278 563.005 835.557 557.483C834.24 555.256 831.5 555.659 829.111 556.059C821.082 557.402 812.844 557.127 804.861 557.883C810.507 544.33 818.784 531.126 827.147 519.117C833.158 510.485 839.865 502.958 847.108 495.381C848.104 494.338 848.811 492.738 849.24 491.358L848.238 490.414C839.281 492.538 821.023 519.047 815.401 527.953C795.796 559.007 785.722 589.145 775.721 624.02C773.779 619.516 763.958 595.575 761.551 593.843C759.894 593.593 760.577 593.385 759.377 594.263C758.181 597.952 771.58 625.489 774.216 631.237C771.829 638.495 770.646 645.889 769.061 653.313C763.489 679.418 762.25 703.832 761.478 730.369C778.153 741.794 791.338 753.767 801.962 771.391C812.65 787.613 815.68 797.411 821.294 815.625C824.666 810.929 828.823 805.239 832.05 800.478C831.425 794.561 830.589 790.51 828.892 784.836C827.724 780.932 823.507 773.344 824.056 769.989L824.759 769.31C831.665 770.4 835.226 789.655 836.132 795.247C851.094 778.603 857.726 772.763 875.747 759.356C877.589 749.266 879.307 737.164 875.733 727.486C874.39 723.849 873.353 722.262 875.465 720.335C877.204 719.97 876.407 719.843 877.94 720.71C883.142 727.915 882.946 746.445 881.521 755.054L881.355 756.028C892.532 748.417 903.281 742.996 914.755 735.909C919.986 732.679 926.842 723.968 929.482 722.517C931.239 722.868 930.575 722.438 931.652 723.656C931.979 728.076 921.521 736.559 918.307 739.438C924.619 739.675 935.205 740.41 940.458 744.167L940.976 745.261C940.192 746.821 940.736 746.151 939.101 747.174C933.189 746.107 917.441 742.412 911.845 744.546C892.672 751.857 868.098 768.694 853.907 783.409C867.704 782.008 881.735 783.123 894.629 788.52C897.554 789.744 907.479 792.782 904.068 797.35C902.189 798.02 899.982 796.538 897.804 795.413C881.917 787.209 867.265 786.177 849.655 788.128C842.706 793.961 833.328 806.047 828.567 813.472C836.013 813.032 872.182 813.072 874.583 821.187C873.668 822.86 874.317 822.361 872.809 823C869.15 822.152 866.179 820.695 862.852 819.872C850.989 816.937 833.803 815.738 821.838 818.662C822.186 822.609 822.499 826.558 822.779 830.51C832.427 829.411 858.983 829.323 868.553 831.815C876.402 833.239 883.207 834.409 890.866 836.748C914.515 843.898 935.092 858.753 949.322 878.949C961.721 896.668 969.058 920.634 966.473 942.27L280.434 942.391L113.532 942.405L70.206 942.448C65.1466 942.456 50.3405 942.295 45.8436 943.154L45.5378 940.978C45.7937 940.145 46.0318 936.585 46.0574 935.6C46.5745 915.654 60.9019 902.563 78.3005 896.259C75.5979 886.354 74.6718 877.535 77.8084 867.669C85.1213 844.667 106.333 832.956 129.674 834.489C131.648 827.769 133.888 822.018 136.434 815.503C142.622 802.915 144.622 798.272 153.379 787.422C152.98 782.518 152.473 777.622 151.857 772.74C141.007 760.837 125.962 750.324 111.296 743.855C107.356 742.117 98.443 738.947 95.5058 737.022C95.0532 735.661 95.0421 735.764 95.3948 734.379C98.4093 732.561 104.86 735.895 107.941 737.173C124.551 744.063 138.671 753.039 151.2 766.073C149.671 748.08 143.883 724.08 138.292 706.799C122.725 697.734 111.978 691.625 94.2391 686.889C89.0645 685.557 83.7915 684.64 78.4707 684.149C76.355 683.934 67.6693 683.499 66.4455 682.64C66.083 680.725 65.9505 681.588 66.6423 679.938C67.2229 679.595 68.1867 679.044 68.8583 679.021C90.5301 678.28 120.044 688.646 136.619 701.007C128.09 671.529 115.659 641.843 98.8741 616.088C84.3335 607.845 72.7855 604.132 56.4005 602.031C54.3678 601.771 52.8653 600.823 51.747 599.085C53.8082 592.347 90.1553 606.054 94.7876 607.922C92.8972 603.916 88.4047 597.176 85.975 593.05C87.0022 589.041 90.0812 575.413 94.3729 574.999L95.0154 576.011C95.607 580.838 92.9371 587.565 91.4197 592.384C93.0361 595.426 95.1122 598.839 96.9211 601.785C107.76 619.441 117.362 636.763 126.049 655.594C127.103 653.072 128.206 650.571 129.357 648.092C132.112 642.162 146.109 616.89 150.998 615.102C152.427 615.613 152.32 615.594 153.31 616.763C153.749 619.445 149.158 624.143 147.531 626.384C140.617 635.909 132.262 651.238 128.923 662.185C139.193 688.308 147.37 715.206 153.378 742.624C158.16 734.913 175.118 712.157 184.256 711.195C185.714 711.908 185.069 711.377 185.89 713.232C185.47 716.35 181.197 717.921 178.462 720.306C168.213 729.244 160.632 738.134 154.839 750.46C155.624 760.268 157.338 770.652 158.252 780.796C169.146 767.919 178.101 757.822 192.553 748.54C197.085 745.63 201.824 743.128 206.46 740.368C219.377 734.171 226.376 730.834 240.75 727.838C242.249 722.547 243.386 714.012 244.239 708.436C245.936 698.026 247.391 687.577 248.602 677.099C249.649 667.554 250.756 653.704 252.572 644.695C247.272 641.807 241.089 637.647 237.009 633.181C219.418 613.921 201.824 594.517 184.192 575.305C166.556 556.088 147.216 537.822 131.781 516.875C120.469 500.801 111.513 481.725 113.389 461.595C116.187 431.575 134.646 418.482 161.947 412.67C160.818 407.8 158.831 402.744 157.448 397.803C148.623 367.234 144.972 324.496 169.897 300.278C196.094 274.823 247.808 275.341 272.84 302.482C306.173 338.622 308.902 388.553 308.372 434.722C315.861 439.854 322.868 445.656 329.307 452.056C351.73 474.731 373.234 508.688 357.539 540.927C346.696 563.2 328.522 582.764 312.659 601.61C301.438 614.941 289.558 627.987 277.393 640.455C270.97 647.003 266.929 647.134 258.358 646.99C256.397 669.117 252.168 704.892 247.666 726.179C253.351 725.118 264.756 723.59 270.22 723.806C280.256 703.007 294.251 683.352 306.73 663.66C330.391 626.319 356.061 586.836 369.832 544.537C377.229 521.817 375.95 497.312 391.697 477.079C396.276 471.197 399.591 466.817 405.657 462.406L408.013 461.2C415.455 467.426 421.916 468.886 431.277 470.854C432.396 471.089 432.367 471.766 432.447 472.601C428.746 476.158 411.575 467.556 407.421 464.619C393.088 474.914 384.382 493.565 380.353 510.327C377.884 520.098 376.898 530.703 374.196 540.359C364.802 573.929 346.153 606.39 328.032 635.952C294.321 690.944 254.208 740.291 244.279 806.101C236.968 854.559 243.005 894.098 260.789 939.37L390.349 939.021C394.513 899.731 398.619 865.936 447.556 869.706C449.622 869.952 454.325 870.265 456.324 869.671C485.011 866.199 511.258 876.294 523.302 904.215C528.363 915.947 527.6 926.587 526.685 938.975L643.251 938.968C644.143 936.499 644.855 933.769 645.568 931.223C657.712 887.816 666.124 843.279 660.191 798.1C657.913 780.753 651.615 763.705 646.737 747.035C642.018 733.233 631.358 703.651 624.069 691.516C622.942 688.555 621.096 684.807 619.684 681.929C608.572 659.265 601.794 635.452 595.269 611.09L595.023 611.184C588.501 613.626 581.949 615.115 575.038 615.96C566.481 617.006 505.469 618.844 501.837 616.866C501.038 616.43 501.324 616.628 500.963 615.618L501.57 614.915C504.5 614.225 511.948 614.51 515.368 614.511L539.556 614.456C560.505 614.218 571.887 612.305 587.732 596.285C605.954 577.862 608.759 553.541 608.476 528.83L608.013 528.732L607.245 528.558C592.203 525.287 586.039 512.304 582.687 498.718C573.758 501.897 564.122 502.283 555.376 497.708C532.832 485.918 534.319 451.199 559.805 444.038C562.518 443.276 565.358 442.516 568.13 441.786C543.4 427.412 510.18 424.735 482.157 428.395L481.456 427.918C481.447 427.396 481.438 426.874 481.429 426.353C483.728 425.727 487.83 425.194 490.342 424.803C490.882 416.507 493.629 408.763 499.821 402.96C505.292 397.828 512.569 395.068 520.066 395.279C528.248 395.477 536.015 398.924 541.651 404.859C549.283 412.93 549.711 420.764 549.475 430.903C554.875 432.299 565.723 436.571 570.345 439.69C571.459 437.397 572.717 434.719 574.139 432.628C576.635 428.915 579.936 425.814 583.796 423.555C592.799 418.31 620.426 412.209 631.139 410.063C641.14 407.337 650.448 406.031 659.946 411.37C663.97 413.632 666.362 416.179 669.758 418.428L669.65 416.013C671.008 413.864 673.927 413.194 676.373 412.578C693.309 408.175 710.547 404.002 727.432 399.519C753.13 392.696 774.152 416.66 780.174 439.347C784.62 456.097 783.272 468.858 774.637 483.836ZM681.753 480.975C680.829 482.869 680.087 484.688 679.153 486.623C676.914 491.265 672.224 495.555 671.677 500.478C667.382 504.976 664.265 507.495 658.618 510.349C660.153 523.281 661.178 533.149 660.698 546.241C660.402 554.298 658.532 565.22 658.534 572.475C647.345 576.523 637.036 579.797 625.949 584.452C615.744 597.735 613.947 601.97 598.515 610.014C603.703 630.435 609.949 653.707 618.785 672.866C629.738 696.615 642.257 719.381 649.173 744.975L649.636 745.896L651.982 752.781C658.371 744.016 663.917 732.795 669.825 723.53C685.179 698.949 700.687 674.479 714.516 648.963C723.919 631.614 736.141 610.636 737.578 590.655C738.378 579.538 735.857 566.118 733.618 555.163C730.287 538.457 726.353 521.876 721.824 505.454L720.998 502.247C712.066 500.986 702.004 502.992 692.968 499.601C688.051 497.756 683.992 494.615 679.261 492.912C678.841 491.26 681.618 483.372 682.298 480.885L681.753 480.975ZM739.044 503.118C735.16 503.331 728.984 502.642 724.885 502.344L724.629 503.856C724.94 504.385 725.213 504.918 725.383 505.511C731.414 526.55 743.218 572.77 740.954 593.301C740.107 600.615 738.318 607.788 735.633 614.643C734.397 617.88 732.894 620.94 731.399 624.059C715.823 656.547 696.538 687.259 677.572 717.818L662.884 741.698C659.823 746.692 656.124 752.2 653.688 757.47C657.026 769.1 661.823 785.701 663.657 797.584C666.721 817.426 665.7 840.981 663.798 860.908C666.064 861.148 668.319 861.483 670.557 861.911C701.845 868.057 727.888 877.634 737.931 911.068C741.165 921.834 740.7 928.557 738.608 939.427L745.064 939.384C745.179 938.992 745.284 938.596 745.379 938.197C749.325 922.157 745.704 905.728 737.403 892.056C727.112 875.107 714.913 868.473 696.514 863.75C688.01 861.567 679.294 858.199 670.365 856.01C670.844 846.362 671.908 837.545 671.961 827.625C672.079 805.747 666.634 779.104 659.195 758.743C661.927 755.705 667.282 746.346 669.614 742.476L688.636 710.551C715.424 710.126 735.134 714.411 757.826 728.64C757.338 722.866 758.471 712.703 758.976 706.695C745.51 692.752 734.513 656.782 731.133 637.217C737.417 625.407 742.84 616.623 745.575 603.008C749.694 582.054 743.848 559.529 739.616 538.992C736.714 524.905 733.065 516.872 739.044 503.118ZM629.416 510.321L627.946 512.07C623.433 520.532 620.256 525.018 610.848 528.458C613.362 551.692 608.376 576.76 593.141 594.919C585.808 603.659 578.442 608.144 568.738 613.654C611.178 611.233 632.11 582.461 634.249 541.788C630.556 540.094 627.111 539.911 624.502 536.512C627.028 535.575 631.509 537.724 634.025 538.727C633.157 528.77 632.392 519.958 629.416 510.321ZM737.373 411.699C697.582 415.994 703.45 491.403 746.963 490.025C789.133 480.315 771.759 409.441 737.373 411.699ZM641.477 419.577C602.739 429.385 610.198 498.038 650.495 496.514C689.831 487.236 678.376 416.396 641.477 419.577ZM236.934 421.65C236.178 422.724 235.276 423.498 235.78 424.943C237.774 430.65 240.981 435.596 242.932 441.352C253.519 472.581 257.695 504.436 259.315 537.358C253.075 530.089 229.286 503.513 220.821 505.824L220.274 506.592C220.975 509.593 228.925 514.328 231.539 516.355C242.015 524.481 251.99 534.547 259.439 545.51C259.455 568.111 258.405 590.701 256.293 613.203C255.701 619.854 255.021 630.063 253.951 636.455C253.704 638.576 252.833 643.634 253.545 645.25C255.723 645.843 255.235 646.074 256.944 645.412C259.441 641.191 264.159 569.269 263.956 561.578C271.429 556.527 279.233 551.983 287.315 547.977C291.588 545.886 300.57 543.577 302.834 541.632L302.985 540.591C301.675 538.961 302.475 539.606 300.344 538.795C290.13 539.886 272.739 549.994 263.963 555.776C264.291 516.605 259.713 473.698 245.969 436.746C244.331 432.34 241.422 423.197 236.934 421.65ZM632.344 509.825C639.472 537.654 639.45 554.234 627.986 580.253L644.88 573.806C648.44 572.536 652.025 571.339 655.633 570.215C657.867 548.23 659.015 533.496 655.339 511.382C646.417 512.904 641.051 512.045 632.344 509.825ZM663.184 864.415C662.547 868.347 662.063 872.427 661.414 876.282C669.987 871.028 674.738 871.074 684.625 870.976L691.471 870.757C683.745 868.526 670.903 864.543 663.184 864.415Z"/><path fill="#4C2C42" d="M460.041 431.524C467.389 428.744 473.534 426.969 481.429 426.353C481.438 426.874 481.447 427.396 481.456 427.918L482.157 428.395C473.807 429.993 468.859 430.906 460.821 433.918C462.569 437.4 464.304 442.309 463.889 446.233L462.912 446.597L463.802 446.527L463.549 446.797C462.675 446.328 462.383 446.116 461.925 444.917C459.44 438.409 458.085 431.568 454.035 425.647C446.286 414.317 431.441 407.156 417.945 411.239C410.275 413.626 403.848 418.925 400.042 425.999C396.529 432.582 395.868 440.317 398.212 447.401C400.223 453.525 403.3 457.075 408.013 461.2L405.657 462.406C402.308 459.271 398.86 456.025 396.966 451.781C389.726 435.556 396.758 417.581 412.735 410.259C420.715 406.641 429.82 406.413 437.972 409.625C448.146 413.524 455.721 421.655 460.041 431.524Z"/><path fill="#F0AD4A" d="M460.821 433.918C468.859 430.906 473.807 429.993 482.157 428.395C510.18 424.735 543.4 427.412 568.13 441.786C565.358 442.516 562.518 443.276 559.805 444.038C534.319 451.199 532.832 485.918 555.376 497.708C564.122 502.283 573.758 501.897 582.687 498.718C586.039 512.304 592.203 525.287 607.245 528.558L608.013 528.732L608.476 528.83C608.759 553.541 605.954 577.862 587.732 596.285C571.887 612.305 560.505 614.218 539.556 614.456L515.368 614.511C511.948 614.51 504.5 614.225 501.57 614.915L500.963 615.618C501.324 616.628 501.038 616.43 501.837 616.866C505.469 618.844 566.481 617.006 575.038 615.96C581.949 615.115 588.501 613.626 595.023 611.184L595.269 611.09C601.794 635.452 608.572 659.265 619.684 681.929C621.096 684.807 622.942 688.555 624.069 691.516C617.558 688.887 608.599 685.251 601.902 683.861C578.107 678.921 552.547 683.794 530.518 693.38C512.002 701.437 495.274 712.584 480.423 726.195C476.82 729.497 465.374 740.835 462.29 742.938C460.393 722.375 460.892 700.937 460.511 680.287C460.483 678.747 460.231 676.282 459.196 675.087C456.343 676.995 457.473 692.972 457.562 696.607C458.416 731.527 458.733 767.496 466.874 801.616C470.005 814.59 480.895 827.699 482.403 841.22C483.14 847.832 480.032 851.88 475.684 856.179C473.566 852.564 464.872 838.156 461.783 836.876C459.885 839.55 471.484 855.13 473.819 857.515C470.277 859.976 468.292 861.24 464.431 863.179L463.835 862.653C458.208 857.63 454.01 851.043 448.2 846.732C447.907 846.788 447.613 846.845 447.319 846.901C448.369 850.613 458.272 861.256 461.162 864.561C454.345 866.589 447.231 867.058 440.823 863.21C421.046 851.335 402.661 818.246 392.625 797.626C386.563 785.173 378.304 762.834 374.568 750.148C372.239 742.049 370.223 733.864 368.525 725.61C367.852 722.368 366.186 713.139 365.296 710.663L364.103 710.597C361.416 713.404 367.152 733.048 368.06 737.437C374.815 770.114 411.908 860.982 446.98 868.566L447.556 869.706C398.619 865.936 394.513 899.731 390.349 939.021L260.789 939.37C243.005 894.098 236.968 854.559 244.279 806.101C254.208 740.291 294.321 690.944 328.032 635.952C346.153 606.39 364.802 573.929 374.196 540.359C376.898 530.703 377.884 520.098 380.353 510.327C384.382 493.565 393.088 474.914 407.421 464.619C411.575 467.556 428.746 476.158 432.447 472.601C432.367 471.766 432.396 471.089 431.277 470.854C421.916 468.886 415.455 467.426 408.013 461.2C403.3 457.075 400.223 453.525 398.212 447.401C395.868 440.317 396.529 432.582 400.042 425.999C403.848 418.925 410.275 413.626 417.945 411.239C431.441 407.156 446.286 414.317 454.035 425.647C458.085 431.568 459.44 438.409 461.925 444.917C462.383 446.116 462.675 446.328 463.549 446.797L463.802 446.527L462.912 446.597L463.889 446.233C464.304 442.309 462.569 437.4 460.821 433.918ZM424.851 421.164C412.924 422.769 405.899 430.707 407.593 443.039C408.401 448.871 411.488 454.144 416.176 457.705C422.142 462.188 428.099 462.328 435.115 461.411C442.12 459.957 454.64 456.432 452.35 447.347C449.238 435 439.135 419.951 424.851 421.164ZM512.236 451.202C509.054 451.52 500.038 452.412 497.765 454.596C498.559 457.737 512.979 458.157 515.88 458.402C519.494 458.74 528.472 460.301 528.647 454.746C525.839 449.893 517.134 450.473 512.236 451.202ZM514.92 462.574C505.559 471.206 511.829 489.712 526.175 484.641C538.015 475.255 525.289 462.412 517.591 462.423C516.699 462.43 515.808 462.48 514.92 462.574ZM570.81 535.43C568.504 536.729 563.842 538.923 562.856 541.174C563.365 542.06 563.217 541.94 563.914 542.656C565.827 541.396 570.804 538.465 571.917 537.145L571.988 536.286C571.376 535.706 571.529 535.691 570.81 535.43ZM577.874 541.903L577.298 542.297C574.43 544.232 570.682 545.81 568.533 547.54L568.347 548.586C569.235 549.729 568.732 549.514 569.829 549.905C572.426 548.239 579.08 544.966 579.936 542.835C578.952 541.712 579.561 542.12 577.874 541.903ZM582.135 545.84C579.764 547.784 573.63 551.817 573.369 554.112C574.008 554.738 574.092 554.901 574.836 555.379L575.328 554.896C578.021 552.285 582.776 549.559 583.337 546.811C582.685 546.084 582.934 546.137 582.135 545.84ZM356.458 730.243C356.203 735.325 360.533 750.578 363.401 754.836C364.44 755.425 364.36 755.393 365.554 755.305C365.725 753.03 359.122 732.596 357.947 730.81L356.458 730.243Z"/><path fill="#90AB9E" d="M746.963 490.025C703.45 491.403 697.582 415.994 737.373 411.699C771.759 409.441 789.133 480.315 746.963 490.025ZM741.485 420.135C742.264 422.499 749.171 425.173 751.631 427.958C760.189 437.652 763.503 451.444 760.912 464.064C760.471 466.208 759.061 471.49 760.306 472.862L761.785 472.814C764.267 465.627 765.826 459.896 765.225 452.193C764.335 440.793 756.001 418.201 741.485 420.135Z"/><path fill="#90AB9E" d="M650.495 496.514C610.198 498.038 602.739 429.385 641.477 419.577C678.376 416.396 689.831 487.236 650.495 496.514ZM644.747 426.91C645.144 428.623 644.923 428.847 647.024 429.996C655.999 434.902 662.408 444.227 664.716 454.396C666.116 460.556 665.989 466.965 664.345 473.064C663.708 475.409 661.523 479.438 663.55 480.889L664.735 480.823C666.503 476.346 667.547 473.491 668.38 468.808C671.016 453.986 662.506 427.952 644.747 426.91Z"/><path fill="#422038" d="M761.785 472.814L760.306 472.862C759.061 471.49 760.471 466.208 760.912 464.064C763.503 451.444 760.189 437.652 751.631 427.958C749.171 425.173 742.264 422.499 741.485 420.135C756.001 418.201 764.335 440.793 765.225 452.193C765.826 459.896 764.267 465.627 761.785 472.814Z"/><path fill="#422038" d="M435.115 461.411C428.099 462.328 422.142 462.188 416.176 457.705C411.488 454.144 408.401 448.871 407.593 443.039C405.899 430.707 412.924 422.769 424.851 421.164C439.135 419.951 449.238 435 452.35 447.347C454.64 456.432 442.12 459.957 435.115 461.411Z"/><path fill="#FEFEFE" d="M259.315 537.358C257.695 504.436 253.519 472.581 242.932 441.352C240.981 435.596 237.774 430.65 235.78 424.943C235.276 423.498 236.178 422.724 236.934 421.65C241.422 423.197 244.331 432.34 245.969 436.746C259.713 473.698 264.291 516.605 263.963 555.776C272.739 549.994 290.13 539.886 300.344 538.795C302.475 539.606 301.675 538.961 302.985 540.591L302.834 541.632C300.57 543.577 291.588 545.886 287.315 547.977C279.233 551.983 271.429 556.527 263.956 561.578C264.159 569.269 259.441 641.191 256.944 645.412C255.235 646.074 255.723 645.843 253.545 645.25C252.833 643.634 253.704 638.576 253.951 636.455C255.021 630.063 255.701 619.854 256.293 613.203C258.405 590.701 259.455 568.111 259.439 545.51C251.99 534.547 242.015 524.481 231.539 516.355C228.925 514.328 220.975 509.593 220.274 506.592L220.821 505.824C229.286 503.513 253.075 530.089 259.315 537.358Z"/><path fill="#422038" d="M664.735 480.823L663.55 480.889C661.523 479.438 663.708 475.409 664.345 473.064C665.989 466.965 666.116 460.556 664.716 454.396C662.408 444.227 655.999 434.902 647.024 429.996C644.923 428.847 645.144 428.623 644.747 426.91C662.506 427.952 671.016 453.986 668.38 468.808C667.547 473.491 666.503 476.346 664.735 480.823Z"/><path fill="#422038" d="M515.88 458.402C512.979 458.157 498.559 457.737 497.765 454.596C500.038 452.412 509.054 451.52 512.236 451.202C517.134 450.473 525.839 449.893 528.647 454.746C528.472 460.301 519.494 458.74 515.88 458.402Z"/><path fill="#F8F8F8" d="M939.709 469.574C941.588 464.227 942.79 459.944 943.863 454.397C943.919 456.546 944.425 458.2 944.577 460.244C944.953 465.311 945.278 470.442 945.43 475.522C945.929 497.752 944.434 519.982 940.965 541.945C940.174 547.169 938.734 558.023 937.053 562.721L933.729 554.615C936.237 549.191 941.648 472.871 939.709 469.574Z"/><path fill="#422038" d="M526.175 484.641C511.829 489.712 505.559 471.206 514.92 462.574C515.808 462.48 516.699 462.43 517.591 462.423C525.289 462.412 538.015 475.255 526.175 484.641ZM516.757 464.735C510.548 471.017 512.475 478.701 519.693 483.103L520.66 482.645C519.646 479.357 517.353 477.507 516.721 474.215C516.097 470.964 518.945 466.217 516.757 464.735Z"/><path fill="#FEFEFE" d="M519.693 483.103C512.475 478.701 510.548 471.017 516.757 464.735C518.945 466.217 516.097 470.964 516.721 474.215C517.353 477.507 519.646 479.357 520.66 482.645L519.693 483.103Z"/><path fill="#FEFEFE" d="M939.709 469.574C941.648 472.871 936.237 549.191 933.729 554.615C925.171 540.116 914.836 531.771 897.891 529.258C919.424 509.571 928.623 496.638 939.709 469.574Z"/><path fill="#4C2C42" d="M671.677 500.478C672.224 495.555 676.914 491.265 679.153 486.623C680.087 484.688 680.829 482.869 681.753 480.975L682.298 480.885C681.618 483.372 678.841 491.26 679.261 492.912C677.43 496.484 674.349 497.743 671.677 500.478Z"/><path fill="#F0AD4A" d="M679.261 492.912C683.992 494.615 688.051 497.756 692.968 499.601C702.004 502.992 712.066 500.986 720.998 502.247C719.212 502.348 717.627 502.219 716.113 502.987C717.089 508.686 720.166 515.848 721.579 521.742C726.077 540.511 731.3 560.475 732.512 579.77C732.676 587.779 732.734 597.743 730.027 605.399C724.645 620.617 716.842 634.689 708.913 648.807C690.574 681.463 670.106 713.071 650.373 744.912C650.127 745.24 649.882 745.568 649.636 745.896L649.173 744.975C642.257 719.381 629.738 696.615 618.785 672.866C609.949 653.707 603.703 630.435 598.515 610.014C613.947 601.97 615.744 597.735 625.949 584.452C637.036 579.797 647.345 576.523 658.534 572.475C658.532 565.22 660.402 554.298 660.698 546.241C661.178 533.149 660.153 523.281 658.618 510.349C664.265 507.495 667.382 504.976 671.677 500.478C674.349 497.743 677.43 496.484 679.261 492.912Z"/><path fill="#FEFEFE" d="M649.636 745.896C649.882 745.568 650.127 745.24 650.373 744.912C670.106 713.071 690.574 681.463 708.913 648.807C716.842 634.689 724.645 620.617 730.027 605.399C732.734 597.743 732.676 587.779 732.512 579.77C731.3 560.475 726.077 540.511 721.579 521.742C720.166 515.848 717.089 508.686 716.113 502.987C717.627 502.219 719.212 502.348 720.998 502.247L721.824 505.454C726.353 521.876 730.287 538.457 733.618 555.163C735.857 566.118 738.378 579.538 737.578 590.655C736.141 610.636 723.919 631.614 714.516 648.963C700.687 674.479 685.179 698.949 669.825 723.53C663.917 732.795 658.371 744.016 651.982 752.781L649.636 745.896Z"/><path fill="#FEFEFE" d="M724.885 502.344C728.984 502.642 735.16 503.331 739.044 503.118C733.065 516.872 736.714 524.905 739.616 538.992C743.848 559.529 749.694 582.054 745.575 603.008C742.84 616.623 737.417 625.407 731.133 637.217C734.513 656.782 745.51 692.752 758.976 706.695C758.471 712.703 757.338 722.866 757.826 728.64C735.134 714.411 715.424 710.126 688.636 710.551L669.614 742.476C667.282 746.346 661.927 755.705 659.195 758.743C666.634 779.104 672.079 805.747 671.961 827.625C671.908 837.545 670.844 846.362 670.365 856.01C679.294 858.199 688.01 861.567 696.514 863.75C714.913 868.473 727.112 875.107 737.403 892.056C745.704 905.728 749.325 922.157 745.379 938.197C745.284 938.596 745.179 938.992 745.064 939.384L738.608 939.427C740.7 928.557 741.165 921.834 737.931 911.068C727.888 877.634 701.845 868.057 670.557 861.911C668.319 861.483 666.064 861.148 663.798 860.908C665.7 840.981 666.721 817.426 663.657 797.584C661.823 785.701 657.026 769.1 653.688 757.47C656.124 752.2 659.823 746.692 662.884 741.698L677.572 717.818C696.538 687.259 715.823 656.547 731.399 624.059C732.894 620.94 734.397 617.88 735.633 614.643C738.318 607.788 740.107 600.615 740.954 593.301C743.218 572.77 731.414 526.55 725.383 505.511C725.213 504.918 724.94 504.385 724.629 503.856L724.885 502.344Z"/><path fill="#FEFEFE" d="M627.986 580.253C639.45 554.234 639.472 537.654 632.344 509.825C641.051 512.045 646.417 512.904 655.339 511.382C659.015 533.496 657.867 548.23 655.633 570.215C652.025 571.339 648.44 572.536 644.88 573.806L627.986 580.253Z"/><path fill="#F0AD4A" d="M627.946 512.07L629.416 510.321C632.392 519.958 633.157 528.77 634.025 538.727C631.509 537.724 627.028 535.575 624.502 536.512C627.111 539.911 630.556 540.094 634.249 541.788C632.11 582.461 611.178 611.233 568.738 613.654C578.442 608.144 585.808 603.659 593.141 594.919C608.376 576.76 613.362 551.692 610.848 528.458C620.256 525.018 623.433 520.532 627.946 512.07ZM623.017 542.97L622.862 544.296C624.84 546.391 629.929 548.315 632.773 548.449L633.297 547.315C631.93 545.139 625.57 543.256 623.017 542.97Z"/><path fill="#7C9D8C" d="M63.5036 530.338C111.202 513.064 159.209 535.195 175.787 583.156C183.342 605.011 183.021 620.547 178.886 642.862C216.213 654.295 219.578 687.418 212.164 722.21C211.473 725.452 205.764 738.374 206.46 740.368C201.824 743.128 197.085 745.63 192.553 748.54C178.101 757.822 169.146 767.919 158.252 780.796C157.338 770.652 155.624 760.268 154.839 750.46C160.632 738.134 168.213 729.244 178.462 720.306C181.197 717.921 185.47 716.35 185.89 713.232C185.069 711.377 185.714 711.908 184.256 711.195C175.118 712.157 158.16 734.913 153.378 742.624C147.37 715.206 139.193 688.308 128.923 662.185C132.262 651.238 140.617 635.909 147.531 626.384C149.158 624.143 153.749 619.445 153.31 616.763C152.32 615.594 152.427 615.613 150.998 615.102C146.109 616.89 132.112 642.162 129.357 648.092C128.206 650.571 127.103 653.072 126.049 655.594C117.362 636.763 107.76 619.441 96.9211 601.785C95.1122 598.839 93.0361 595.426 91.4197 592.384C92.9371 587.565 95.607 580.838 95.0154 576.011L94.3729 574.999C90.0812 575.413 87.0022 589.041 85.975 593.05C88.4047 597.176 92.8972 603.916 94.7876 607.922C90.1553 606.054 53.8082 592.347 51.747 599.085C52.8653 600.823 54.3678 601.771 56.4005 602.031C72.7855 604.132 84.3335 607.845 98.8741 616.088C115.659 641.843 128.09 671.529 136.619 701.007C120.044 688.646 90.5301 678.28 68.8583 679.021C68.1867 679.044 67.2229 679.595 66.6423 679.938C65.9505 681.588 66.083 680.725 66.4455 682.64C67.6693 683.499 76.355 683.934 78.4707 684.149C83.7915 684.64 89.0645 685.557 94.2391 686.889C111.978 691.625 122.725 697.734 138.292 706.799C143.883 724.08 149.671 748.08 151.2 766.073C138.671 753.039 124.551 744.063 107.941 737.173C104.86 735.895 98.4093 732.561 95.3948 734.379C95.0421 735.764 95.0532 735.661 95.5058 737.022C98.443 738.947 107.356 742.117 111.296 743.855C125.962 750.324 141.007 760.837 151.857 772.74C152.473 777.622 152.98 782.518 153.379 787.422C144.622 798.272 142.622 802.915 136.434 815.503C133.419 809.923 130.957 804.099 128.103 798.466C107.654 758.115 76.3627 726.009 49.7236 689.914C28.5739 661.257 2.78435 624.078 13.4117 586.515C20.5674 561.223 34.8148 545.745 57.3663 533.065L63.5036 530.338Z"/><path fill="#422038" d="M563.914 542.656C563.217 541.94 563.365 542.06 562.856 541.174C563.842 538.923 568.504 536.729 570.81 535.43C571.529 535.691 571.376 535.706 571.988 536.286L571.917 537.145C570.804 538.465 565.827 541.396 563.914 542.656Z"/><path fill="#4C2C42" d="M569.829 549.905C568.732 549.514 569.235 549.729 568.347 548.586L568.533 547.54C570.682 545.81 574.43 544.232 577.298 542.297L577.874 541.903C579.561 542.12 578.952 541.712 579.936 542.835C579.08 544.966 572.426 548.239 569.829 549.905Z"/><path fill="#4C2C42" d="M632.773 548.449C629.929 548.315 624.84 546.391 622.862 544.296L623.017 542.97C625.57 543.256 631.93 545.139 633.297 547.315L632.773 548.449Z"/><path fill="#4C2C42" d="M574.836 555.379C574.092 554.901 574.008 554.738 573.369 554.112C573.63 551.817 579.764 547.784 582.135 545.84C582.934 546.137 582.685 546.084 583.337 546.811C582.776 549.559 578.021 552.285 575.328 554.896L574.836 555.379Z"/><path fill="#422038" d="M475.684 856.179C480.032 851.88 483.14 847.832 482.403 841.22C480.895 827.699 470.005 814.59 466.874 801.616C458.733 767.496 458.416 731.527 457.562 696.607C457.473 692.972 456.343 676.995 459.196 675.087C460.231 676.282 460.483 678.747 460.511 680.287C460.892 700.937 460.393 722.375 462.29 742.938C463.392 763.72 465.403 785.708 471.438 805.706C476.046 820.975 494.015 840.034 480.871 855.645C475.829 861.633 463.735 867.454 456.141 868.661C452.394 869.025 450.663 869.055 446.98 868.566C411.908 860.982 374.815 770.114 368.06 737.437C367.152 733.048 361.416 713.404 364.103 710.597L365.296 710.663C366.186 713.139 367.852 722.368 368.525 725.61C370.223 733.864 372.239 742.049 374.568 750.148C378.304 762.834 386.563 785.173 392.625 797.626C402.661 818.246 421.046 851.335 440.823 863.21C447.231 867.058 454.345 866.589 461.162 864.561C458.272 861.256 448.369 850.613 447.319 846.901C447.613 846.845 447.907 846.788 448.2 846.732C454.01 851.043 458.208 857.63 463.835 862.653L464.431 863.179C468.292 861.24 470.277 859.976 473.819 857.515C475.01 857.095 474.668 857.155 475.684 856.179Z"/><path fill="#7C9D8C" d="M801.962 771.391C805.775 756.731 812.144 737.473 825.826 728.716C834.877 722.924 843.613 728.009 850.012 723.137C853.65 720.367 861.711 708.969 865.065 704.594C881.096 683.026 905.647 672.689 932.008 680.321C948.949 685.226 962.737 694.493 971.245 710.112C993.977 751.842 953.608 789.048 919.192 806.495C903.904 814.246 889.875 820.577 873.286 825.124C871.77 827.044 869.467 829.658 868.553 831.815C858.983 829.323 832.427 829.411 822.779 830.51C822.499 826.558 822.186 822.609 821.838 818.662C833.803 815.738 850.989 816.937 862.852 819.872C866.179 820.695 869.15 822.152 872.809 823C874.317 822.361 873.668 822.86 874.583 821.187C872.182 813.072 836.013 813.032 828.567 813.472C833.328 806.047 842.706 793.961 849.655 788.128C867.265 786.177 881.917 787.209 897.804 795.413C899.982 796.538 902.189 798.02 904.068 797.35C907.479 792.782 897.554 789.744 894.629 788.52C881.735 783.123 867.704 782.008 853.907 783.409C868.098 768.694 892.672 751.857 911.845 744.546C917.441 742.412 933.189 746.107 939.101 747.174C940.736 746.151 940.192 746.821 940.976 745.261L940.458 744.167C935.205 740.41 924.619 739.675 918.307 739.438C921.521 736.559 931.979 728.076 931.652 723.656C930.575 722.438 931.239 722.868 929.482 722.517C926.842 723.968 919.986 732.679 914.755 735.909C903.281 742.996 892.532 748.417 881.355 756.028L881.521 755.054C882.946 746.445 883.142 727.915 877.94 720.71C876.407 719.843 877.204 719.97 875.465 720.335C873.353 722.262 874.39 723.849 875.733 727.486C879.307 737.164 877.589 749.266 875.747 759.356C857.726 772.763 851.094 778.603 836.132 795.247C835.226 789.655 831.665 770.4 824.759 769.31L824.056 769.989C823.507 773.344 827.724 780.932 828.892 784.836C830.589 790.51 831.425 794.561 832.05 800.478C828.823 805.239 824.666 810.929 821.294 815.625C815.68 797.411 812.65 787.613 801.962 771.391Z"/><path fill="#F8F8F8" d="M462.29 742.938C465.374 740.835 476.82 729.497 480.423 726.195C495.274 712.584 512.002 701.437 530.518 693.38C552.547 683.794 578.107 678.921 601.902 683.861C608.599 685.251 617.558 688.887 624.069 691.516C631.358 703.651 642.018 733.233 646.737 747.035C651.615 763.705 657.913 780.753 660.191 798.1C666.124 843.279 657.712 887.816 645.568 931.223C644.855 933.769 644.143 936.499 643.251 938.968L526.685 938.975C527.6 926.587 528.363 915.947 523.302 904.215C511.258 876.294 485.011 866.199 456.324 869.671L456.141 868.661C463.735 867.454 475.829 861.633 480.871 855.645C494.015 840.034 476.046 820.975 471.438 805.706C465.403 785.708 463.392 763.72 462.29 742.938Z"/><path fill="#422038" d="M365.554 755.305C364.36 755.393 364.44 755.425 363.401 754.836C360.533 750.578 356.203 735.325 356.458 730.243L357.947 730.81C359.122 732.596 365.725 753.03 365.554 755.305Z"/><path fill="#4C2C42" d="M473.819 857.515C471.484 855.13 459.885 839.55 461.783 836.876C464.872 838.156 473.566 852.564 475.684 856.179C474.668 857.155 475.01 857.095 473.819 857.515Z"/><path fill="#F0AD4A" d="M661.414 876.282C662.063 872.427 662.547 868.347 663.184 864.415C670.903 864.543 683.745 868.526 691.471 870.757L684.625 870.976C674.738 871.074 669.987 871.028 661.414 876.282Z"/><path fill="#906A70" d="M446.98 868.566C450.663 869.055 452.394 869.025 456.141 868.661L456.324 869.671C454.325 870.265 449.622 869.952 447.556 869.706L446.98 868.566Z"/><path fill="#4C2C42" d="M45.8436 943.154C45.7927 943.164 45.0936 943.32 44.7054 943.332C31.5023 943.761 18.1902 943.477 4.97398 943.44C4.72441 943.232 4.47484 943.025 4.22528 942.817L4.46352 941.58C6.40484 939.777 13.4337 940.72 16.3885 940.725L45.5378 940.978L45.8436 943.154Z"/><path fill="#4C2C42" d="M1023.72 944.057C1020.05 944.965 995.696 944.47 990.367 944.218C989.303 944.168 988.96 942.615 988.551 941.601C992.774 941.174 1021.42 940.905 1023.36 942.123L1023.72 944.057Z"/><path fill="#4C2C42" d="M904.589 956.054C902.691 956.372 894.663 956.167 892.376 956.151C883.39 956.072 874.404 956.039 865.418 956.053L755.934 956.129L432.851 956.237L369.745 956.132C364.443 956.149 343.041 956.65 339.279 955.787C338.069 954.572 338.489 955.335 338.461 953.183C355.328 952.582 376.244 953.161 393.44 953.18L511.289 953.281L897.26 953.035C899.449 953.046 902.877 952.796 904.554 953.988L904.589 956.054Z"/><path fill="#4C2C42" d="M121.25 956.58C118.705 956.601 111.059 956.969 109.428 955.778L109.358 954.952C111.859 952.988 124.338 953.706 128.245 953.75C130.455 953.706 138.435 953.189 139.759 954.155C139.812 955.717 140.037 955.007 138.862 956.282C135.355 956.968 125.408 956.619 121.25 956.58Z"/><path fill="#4C2C42" d="M271.896 956.592L206.32 956.583C202.33 956.582 181.787 956.802 179.289 956.251L178.757 955.359L179.276 953.661C189.842 953.654 269.459 953.033 272.246 954.271L272.581 955.214L271.896 956.592Z"/><path fill="#4C2C42" d="M485.093 976.509L197.623 976.501L125.447 976.481C120.357 976.492 84.08 977.111 82.3469 975.845L82.0405 973.428L358.801 973.543L441.396 973.461C452.591 973.432 473.622 972.725 484.155 973.574C485.258 974.643 484.9 974.537 485.093 976.509Z"/><path fill="#4C2C42" d="M739.248 976.433C705.769 977.26 669.1 976.391 635.361 976.383L576.959 976.44C566.296 976.466 554.544 976.743 544.005 976.423C542.951 975.426 543.25 975.281 542.931 973.508C550.865 973.308 559.419 973.343 567.384 973.472C624.047 974.39 681.4 972.291 737.992 973.583C739.235 974.484 738.852 974.42 739.248 976.433Z"/><path fill="#4C2C42" d="M928.511 976.341C920.484 976.712 910.343 976.451 902.173 976.438L855.5 976.384L817.411 976.498C811.222 976.52 802.258 976.825 796.234 976.423C795.178 975.415 795.535 975.422 795.41 973.469L881.913 973.542C896.179 973.539 910.698 973.464 924.983 973.593C926.982 973.611 927.077 973.553 928.4 974.503L928.511 976.341Z"/></svg>