<?xml version="1.0" standalone="yes"?>
<svg xmlns="http://www.w3.org/2000/svg" width="130" height="52">
<path style="fill:#3395ff; stroke:none;" d="M0 16L0 18C12.6512 22.2911 24.7136 25.8978 36 33.5201C48.747 42.1287 55.5251 55.1789 73 51.6204C82.5498 49.6756 90.2195 40.4457 97 34.0355C107.135 24.4536 116.79 17.0228 130 13C122.87 6.77148 108.124 6.22131 99 4.57561C86.7211 2.36096 74.5586 -0.515419 62 0.0393524C53.6654 0.407528 45.0654 3.11071 37 5.12654C24.526 8.24425 12.0074 11.368 0 16z"/>
<path style="fill:#0000ff; stroke:none;" d="M87 2L88 3L87 2M20 9L21 10L20 9M13 11L14 12L13 11M129 13L130 14L129 13z"/>
<path style="fill:#0000ff; stroke:none;" d="M0 18L1 19L0 18z"/>
<path style="fill:#0055ff; stroke:none;" d="M89 40L90 41L89 40z"/>
<path style="fill:#0000ff; stroke:none;" d="M87 42L88 43L87 42M76 50L77 51L76 50z"/>
</svg>
