<svg id="visual" viewBox="0 0 960 540" width="960" height="540" xmlns="http://www.w3.org/2000/svg" xmlns:xlink="http://www.w3.org/1999/xlink" version="1.1"><path d="M0 503L26.7 499.5C53.3 496 106.7 489 160 480.8C213.3 472.7 266.7 463.3 320 469C373.3 474.7 426.7 495.3 480 495.8C533.3 496.3 586.7 476.7 640 472.8C693.3 469 746.7 481 800 487C853.3 493 906.7 493 933.3 493L960 493L960 541L933.3 541C906.7 541 853.3 541 800 541C746.7 541 693.3 541 640 541C586.7 541 533.3 541 480 541C426.7 541 373.3 541 320 541C266.7 541 213.3 541 160 541C106.7 541 53.3 541 26.7 541L0 541Z" fill="#204116" stroke-linecap="round" stroke-linejoin="miter"></path></svg>