<?xml version="1.0" encoding="UTF-8" standalone="no"?>
<!-- Created with Inkscape (http://www.inkscape.org/) -->

<svg
   width="132.42969mm"
   height="98.122505mm"
   viewBox="0 0 132.42969 98.122505"
   version="1.1"
   id="svg1"
   xml:space="preserve"
   xmlns:xlink="http://www.w3.org/1999/xlink"
   xmlns="http://www.w3.org/2000/svg"
   xmlns:svg="http://www.w3.org/2000/svg"><defs
     id="defs1" /><g
     id="layer1"
     transform="translate(-40.825218,-98.050333)"><image
       width="166.6875"
       height="133.87917"
       preserveAspectRatio="none"
       style="display:none;image-rendering:optimizeSpeed"
       id="image1"
       x="22.754168"
       y="82.550003" /><path
       style="display:inline;fill:none;stroke:#000000;stroke-width:4;stroke-linecap:round;stroke-dasharray:none"
       d="m 163.80552,141.57607 c 0,0 8.19939,-0.54662 8.19939,4.91963 0,5.46626 -7.65277,7.65277 -9.47485,7.47056"
       id="path1" /><path
       style="fill:none;stroke:#000000;stroke-width:4;stroke-linecap:round;stroke-linejoin:round;stroke-dasharray:none"
       d="m 87.642331,143.94478 c 0,0 -39.299349,24.73564 -45.369939,-12.39018 -3.353766,-20.51058 36.218741,-27.69571 39.903682,-27.69571 7.834966,1e-5 17.260145,8.29406 20.589566,8.92823 3.82638,0.72883 26.06285,1.02308 36.98835,3.09754 14.39447,2.73313 22.77606,19.49632 23.5049,25.14479 1.0989,8.51642 -4.21389,24.53634 -7.28834,27.33128 -4.00859,3.64417 -5.10184,8.56381 -5.10184,12.39019 1e-5,3.59371 -0.54662,9.47485 -2.36871,11.66135 -0.88914,1.06696 -8.93729,1.35295 -16.94585,1.36608 -8.40316,0.0138 -15.30507,-0.0906 -15.30507,-0.0906 -0.0889,-3.43435 1.50938,-6.08106 3.46196,-6.1951 3.30508,-0.19303 1.24125,-8.79281 -0.91104,-10.02147 -1.37684,-0.78599 -7.83497,-2.00429 -9.83926,-0.54663 -2.0043,1.45767 -2.0043,16.21657 -4.73743,16.94541 -2.73313,0.72883 -31.329723,1.63988 -29.882207,0.54662 0,0 -0.798923,-5.76508 5.28405,-6.92393 3.819807,-0.72769 -1.975031,-18.57331 -3.461964,-22.22944 -0.553425,-1.36078 -6.55951,-14.03006 -6.55951,-14.03006"
       id="path2" /><path
       style="fill:none;stroke:#000000;stroke-width:4;stroke-linecap:round;stroke-linejoin:round;stroke-dasharray:none"
       d="m 87.095705,108.59632 c 0,0 0.364416,-12.207978 8.746011,-8.3816 8.381594,3.82638 -0.546624,12.93681 -1.822085,12.93681"
       id="path3" /><path
       style="fill:none;stroke:#000000;stroke-width:4;stroke-linecap:round;stroke-linejoin:round;stroke-dasharray:none"
       d="m 69.421472,106.22761 c 0,0 0.894837,-6.861192 5.648465,-6.923934 5.286792,-0.06978 5.101842,1.275474 5.101842,4.008594"
       id="path4" /><path
       style="fill:none;stroke:#000000;stroke-width:2;stroke-linecap:round;stroke-linejoin:round;stroke-dasharray:none"
       d="m 49.378526,146.4957 c 0,0 -2.004294,-11.29692 -3.461962,-14.21227 -1.243828,-2.48767 -3.279754,-1.82208 -3.279754,-1.82208"
       id="path5" /><path
       style="fill:none;stroke:#000000;stroke-width:2;stroke-linecap:round;stroke-linejoin:round;stroke-dasharray:none"
       d="M 45.369938,130.82576 H 49.01411"
       id="path6" /><path
       style="fill:none;stroke:#000000;stroke-width:3;stroke-linecap:round;stroke-linejoin:round;stroke-dasharray:none"
       d="m 77.074233,123.71963 c 0,0 2.186503,1.82209 4.737422,0.54663 2.55092,-1.27546 4.116791,-2.09821 3.279754,-4.1908 -0.364415,-0.91104 -3.279755,-1.09325 -5.466255,0 -2.186504,1.09325 -2.550921,3.64417 -2.550921,3.64417 z"
       id="path7" /><path
       style="fill:none;stroke:#000000;stroke-width:4;stroke-linecap:round;stroke-linejoin:round;stroke-dasharray:none"
       d="m 109.50736,166.72086 -1.45767,12.39018"
       id="path8" /><path
       style="fill:none;stroke:#000000;stroke-width:4;stroke-linecap:round;stroke-linejoin:round;stroke-dasharray:none"
       d="m 90.375458,166.35644 c 0,0 5.436914,20.97097 2.186504,20.77178 -1.646881,-0.10092 -6.377301,3.64417 -5.648465,7.10613"
       id="path9" /><path
       style="fill:none;stroke:#000000;stroke-width:4;stroke-linecap:round;stroke-linejoin:round;stroke-dasharray:none"
       d="m 128.27485,151.23313 c 0,0 -5.2495,12.50041 3.82638,24.05153 2.00429,2.55092 6.42286,9.56595 1.54877,10.88696 -3.40161,0.92193 -2.45981,7.1517 -2.45981,7.1517"
       id="path10" /><path
       style="fill:none;stroke:#000000;stroke-width:4;stroke-linecap:round;stroke-linejoin:round;stroke-dasharray:none"
       d="m 131.5546,174.92024 c 0,0 -18.94969,1.45767 -22.04724,0.54663"
       id="path11" /><path
       style="fill:none;stroke:#000000;stroke-width:4;stroke-linecap:round;stroke-linejoin:round;stroke-dasharray:none"
       d="m 92.015335,174.19141 c 0,0 -14.394476,-4.91963 -16.580979,-10.75031"
       id="path12" /><path
       style="fill:none;stroke:#000000;stroke-width:4;stroke-linecap:round;stroke-linejoin:round;stroke-dasharray:none"
       d="m 136.83865,122.9908 c 0,0 3.27975,0.54662 4.55521,1.82209"
       id="path13" /><path
       style="fill:none;stroke:#000000;stroke-width:4;stroke-linecap:round;stroke-linejoin:round;stroke-dasharray:none"
       d="m 146.31349,127.91043 c 0,0 2.0043,1.45767 3.27976,3.27975"
       id="path14" /></g></svg>
