<svg id="visual" viewBox="0 0 960 540" width="960" height="540" xmlns="http://www.w3.org/2000/svg" xmlns:xlink="http://www.w3.org/1999/xlink" version="1.1"><path d="M0 475L26.7 480.8C53.3 486.7 106.7 498.3 160 501.5C213.3 504.7 266.7 499.3 320 489.7C373.3 480 426.7 466 480 464C533.3 462 586.7 472 640 483.2C693.3 494.3 746.7 506.7 800 503.2C853.3 499.7 906.7 480.3 933.3 470.7L960 461L960 541L933.3 541C906.7 541 853.3 541 800 541C746.7 541 693.3 541 640 541C586.7 541 533.3 541 480 541C426.7 541 373.3 541 320 541C266.7 541 213.3 541 160 541C106.7 541 53.3 541 26.7 541L0 541Z" fill="#204116" stroke-linecap="round" stroke-linejoin="miter"></path></svg>