<svg id="visual" viewBox="0 0 450 450" width="450" height="450" xmlns="http://www.w3.org/2000/svg" xmlns:xlink="http://www.w3.org/1999/xlink" version="1.1"><rect x="0" y="0" width="450" height="450" fill="#204116"></rect><g transform="translate(204.38153791676166 225.8110429923688)"><path d="M118.4 -135.5C155.3 -110.1 188.4 -74.6 200.4 -31.6C212.4 11.3 203.2 61.6 177.9 100.1C152.6 138.6 111.2 165.1 68.4 175.1C25.7 185.1 -18.5 178.5 -57.8 162.6C-97.2 146.6 -131.7 121.3 -149 87.8C-166.2 54.2 -166.2 12.5 -162.2 -31.8C-158.1 -76 -150.1 -122.6 -122.4 -149.7C-94.7 -176.9 -47.4 -184.4 -3.3 -180.5C40.7 -176.5 81.4 -161 118.4 -135.5" fill="#FFFFFF"></path></g></svg>