<svg id="visual" viewBox="0 0 450 450" width="450" height="450" xmlns="http://www.w3.org/2000/svg" xmlns:xlink="http://www.w3.org/1999/xlink" version="1.1"><rect x="0" y="0" width="450" height="450" fill="#204116"></rect><g transform="translate(226.66265055739558 215.8023946868828)"><path d="M119.1 -144.7C147.3 -118.2 158.3 -74 164.2 -30.5C170.1 13.1 170.8 56 153.6 91.4C136.4 126.8 101.4 154.5 60 173.3C18.6 192 -29.2 201.7 -70.7 188.9C-112.2 176.1 -147.5 140.8 -162.3 100.7C-177.2 60.6 -171.7 15.6 -159.6 -23.8C-147.4 -63.2 -128.7 -97.1 -101 -123.7C-73.3 -150.3 -36.6 -169.7 4.4 -174.9C45.4 -180.1 90.8 -171.3 119.1 -144.7" fill="#FFFFFF"></path></g></svg>