<svg id="visual" viewBox="0 0 450 450" width="450" height="450" xmlns="http://www.w3.org/2000/svg" xmlns:xlink="http://www.w3.org/1999/xlink" version="1.1"><rect x="0" y="0" width="450" height="450" fill="#204116"></rect><g transform="translate(219.1576523566743 210.8573209521628)"><path d="M128.9 -145.3C164.9 -123.5 190.3 -80.8 199.2 -34.5C208.2 11.8 200.6 61.7 177.1 102.1C153.6 142.6 114.1 173.7 70.5 186.5C26.9 199.2 -20.7 193.6 -65.7 178.2C-110.6 162.8 -152.7 137.6 -174 100.6C-195.2 63.5 -195.6 14.5 -181.7 -26.4C-167.7 -67.2 -139.5 -99.9 -106.8 -122.2C-74.1 -144.6 -37.1 -156.7 4.7 -162.3C46.5 -167.9 93 -167.1 128.9 -145.3" fill="#FFFFFF"></path></g></svg>